<?xml version="1.0" encoding="UTF-8" standalone="no"?>
<!-- Created with Inkscape (http://www.inkscape.org/) -->

<svg
   width="1920"
   height="1080"
   viewBox="0 0 508 285.75"
   version="1.1"
   id="svg5"
   inkscape:version="1.1.2 (0a00cf5339, 2022-02-04)"
   sodipodi:docname="banner.svg"
   xmlns:inkscape="http://www.inkscape.org/namespaces/inkscape"
   xmlns:sodipodi="http://sodipodi.sourceforge.net/DTD/sodipodi-0.dtd"
   xmlns="http://www.w3.org/2000/svg"
   xmlns:svg="http://www.w3.org/2000/svg">
  <sodipodi:namedview
     id="namedview7"
     pagecolor="#ffffff"
     bordercolor="#666666"
     borderopacity="1.0"
     inkscape:pageshadow="2"
     inkscape:pageopacity="0.0"
     inkscape:pagecheckerboard="0"
     inkscape:document-units="mm"
     showgrid="false"
     units="px"
     showguides="true"
     inkscape:zoom="0.54866744"
     inkscape:cx="1498.1753"
     inkscape:cy="371.80992"
     inkscape:window-width="1920"
     inkscape:window-height="1056"
     inkscape:window-x="0"
     inkscape:window-y="24"
     inkscape:window-maximized="1"
     inkscape:current-layer="layer1"
     inkscape:snap-page="true"
     inkscape:snap-object-midpoints="true"
     inkscape:snap-center="true"
     inkscape:snap-bbox="true"
     inkscape:snap-bbox-midpoints="true"
     inkscape:bbox-paths="true"
     inkscape:bbox-nodes="true"
     inkscape:snap-bbox-edge-midpoints="true"
     inkscape:snap-global="true"
     inkscape:object-paths="true"
     inkscape:snap-intersection-paths="true"
     inkscape:object-nodes="true"
     inkscape:snap-midpoints="true"
     inkscape:snap-smooth-nodes="true"
     inkscape:guide-bbox="true" />
  <defs
     id="defs2" />
  <g
     inkscape:label="Layer 1"
     inkscape:groupmode="layer"
     id="layer1">
    <rect
       style="fill:#000000;fill-opacity:1;fill-rule:evenodd;stroke:none;stroke-width:4.20399;stroke-linecap:round;stroke-linejoin:round;stroke-opacity:0.998321"
       id="rect6201"
       width="508"
       height="285.75"
       x="0"
       y="0" />
    <text
       xml:space="preserve"
       style="font-size:105.833px;line-height:1.25;font-family:Libr;-inkscape-font-specification:Libr;stroke:none;stroke-width:0.264583"
       x="56.092575"
       y="193.09276"
       id="text7960"><tspan
         sodipodi:role="line"
         id="tspan7958"
         style="font-style:normal;font-variant:normal;font-weight:normal;font-stretch:normal;font-size:105.833px;font-family:CubeFarm_Latin;-inkscape-font-specification:CubeFarm_Latin;stroke:none;stroke-width:0.264583"
         x="56.092575"
         y="193.09276"><tspan
           style="fill:#ffffff;fill-opacity:1;stroke:none"
           id="tspan29826">Carl</tspan><tspan
           id="tspan33225"
           style="fill:#a5a5a5;fill-opacity:1;stroke:none">OS</tspan></tspan></text>
    <circle
       style="font-weight:bold;font-size:71.465px;line-height:1.25;-inkscape-font-specification:'sans-serif Bold';fill:#ffffff;fill-opacity:1;fill-rule:evenodd;stroke:none;stroke-width:5.2836;stroke-linecap:round;stroke-linejoin:round;stroke-opacity:0.998321"
       id="path12219"
       cx="-348.41989"
       cy="114.07854"
       r="15.269502"
       transform="scale(-1,1)" />
    <circle
       style="font-weight:bold;font-size:71.465px;line-height:1.25;-inkscape-font-specification:'sans-serif Bold';fill:#000000;fill-opacity:1;fill-rule:evenodd;stroke:none;stroke-width:3.78146;stroke-linecap:round;stroke-linejoin:round;stroke-opacity:0.998321"
       id="path12219-6"
       cx="-344.0788"
       cy="114.07854"
       r="10.928364"
       transform="scale(-1,1)" />
    <circle
       style="font-weight:bold;font-size:71.465px;line-height:1.25;-inkscape-font-specification:'sans-serif Bold';fill:#ffffff;fill-opacity:1;fill-rule:evenodd;stroke:none;stroke-width:5.2836;stroke-linecap:round;stroke-linejoin:round;stroke-opacity:0.998321"
       id="path12219-3"
       cx="-313.3804"
       cy="114.07854"
       r="15.269502"
       transform="scale(-1,1)" />
    <circle
       style="font-weight:bold;font-size:71.465px;line-height:1.25;-inkscape-font-specification:'sans-serif Bold';fill:#000000;fill-opacity:1;fill-rule:evenodd;stroke:none;stroke-width:3.78146;stroke-linecap:round;stroke-linejoin:round;stroke-opacity:0.998321"
       id="path12219-6-5"
       cx="-309.03925"
       cy="114.07854"
       r="10.928364"
       transform="scale(-1,1)" />
    <g
       style="fill:#000000;stroke:none"
       id="g35321"
       transform="matrix(0.16610083,0,0,0.16610083,290.19396,105.84471)">
      <g
         id="g35312"
         style="stroke:none">
        <path
           d="m 480.986,215.947 c -1.4,1.1 -2.9,2.2 -4.5,3.3 v 0 0 c -7.9,5.1 -18.5,9.2 -32.8,9.9 -41.3,2.1 -77.6,-68.9 -135.5,-66 -14.8,0.7 -35.3,4.3 -63,31.8 -27.7,-27.6 -48.1,-31.1 -63,-31.8 -57.9,-2.9 -94.2,68.1 -135.5,66 -14.3,-0.7 -25,-4.8 -32.8,-9.9 v 0 0 c -1.6,-1.1 -3.1,-2.2 -4.5,-3.3 -13.2,-8.4 -8.9,7.2 -8,10.3 12.1,37.3 43.3,97.1 119.7,100.9 60.8,3.1 102.7,-24.7 124.1,-55.4 21.4,30.6 63.3,58.4 124.1,55.4 76.4,-3.8 107.6,-63.6 119.7,-100.9 1,-3.1 5.3,-18.7 -8,-10.3 z"
           id="path35310"
           style="stroke:none" />
      </g>
    </g>
    <path
       style="fill:#a6a6a6;fill-opacity:1;stroke:none;stroke-width:0.289906px;stroke-linecap:butt;stroke-linejoin:miter;stroke-opacity:1"
       d="m 74.695632,130.09043 12.089414,-5.46205 6.400562,-8.23457 8.404802,10.19078 12.72365,3.35972 9.14959,-8.22284 -0.55125,-12.54205 -8.81305,-6.31751 -43.102733,0.13986 -7.719137,7.97998 0.991039,13.62972 z"
       id="path35952" />
    <g
       style="fill:#000000;stroke:none"
       id="g35359"
       transform="matrix(0.12720456,0,0,0.12720456,60.621219,83.829377)">
      <g
         id="g35349"
         style="stroke:none">
        <g
           id="g35347"
           style="stroke:none">
          <path
             d="m 483.983,167.477 c -32.82,-35.047 -84,-35.047 -108.599,-35.047 -0.02,0 -0.042,0 -0.062,0 H 136.619 c -0.001,0 -0.002,0 -0.003,0 -24.596,0 -75.776,0 -108.596,35.047 -21.01,22.435 -30.28,54.841 -27.555,96.319 2.226,33.874 14.411,62.702 35.241,83.37 21.364,21.199 50.394,32.405 83.95,32.405 34.529,0 69.87,-17.448 99.513,-49.13 15.052,-16.088 27.626,-34.818 36.831,-54.048 9.205,19.231 21.779,37.96 36.831,54.048 29.643,31.682 64.984,49.13 99.513,49.13 33.555,0 62.586,-11.205 83.95,-32.405 20.83,-20.668 33.014,-49.498 35.241,-83.37 2.726,-41.479 -6.543,-73.884 -27.552,-96.319 z m -347.364,-1.655 c 12.154,0 43.181,0.904 68.747,9.271 8.192,2.681 14.924,5.807 20.185,9.36 H 58.757 c 23.378,-18.62 58.303,-18.631 77.862,-18.631 z m -16.962,180.357 c -21.066,0 -39.426,-5.797 -53.677,-16.822 h 103.571 c -16.356,10.978 -33.444,16.822 -49.894,16.822 z m 85.109,-50.214 H 41.292 c -2.78,-6.898 -4.828,-14.383 -6.128,-22.365 h 184.662 c -4.421,7.707 -9.475,15.243 -15.06,22.365 z m 29.801,-55.757 H 33.722 c 0.542,-8.14 1.791,-15.594 3.724,-22.365 h 201.789 c -0.689,7.11 -2.28,14.645 -4.668,22.365 z m 72.069,-65.116 c 25.566,-8.367 56.592,-9.271 68.749,-9.271 19.555,0 54.48,0.011 77.859,18.63 H 286.451 c 5.26,-3.552 11.993,-6.677 20.185,-9.359 z m 85.709,171.087 c -16.451,0 -33.539,-5.844 -49.894,-16.822 h 103.571 c -14.251,11.025 -32.611,16.822 -53.677,16.822 z M 470.71,295.965 H 307.235 c -5.585,-7.122 -10.64,-14.658 -15.059,-22.365 h 184.662 c -1.299,7.982 -3.347,15.467 -6.128,22.365 z M 277.435,240.208 c -2.389,-7.72 -3.979,-15.256 -4.668,-22.365 h 201.789 c 1.933,6.771 3.182,14.225 3.724,22.365 z"
             id="path35345"
             style="stroke:none" />
        </g>
      </g>
    </g>
    <rect
       style="fill:#010101;fill-opacity:1;fill-rule:evenodd;stroke:none;stroke-width:1.51698;stroke-linejoin:round;paint-order:stroke markers fill"
       id="rect35456"
       width="7.9479523"
       height="7.1544127"
       x="121.52218"
       y="111.47814" />
    <rect
       style="fill:#010101;fill-opacity:1;fill-rule:evenodd;stroke:none;stroke-width:1.54982;stroke-linejoin:round;paint-order:stroke markers fill"
       id="rect35456-3"
       width="8.2955017"
       height="7.1544161"
       x="55.987564"
       y="111.47814" />
    <path
       style="fill:#ffffff;fill-opacity:1;stroke:none;stroke-width:0.264583px;stroke-linecap:butt;stroke-linejoin:miter;stroke-opacity:1"
       d="m 301.16961,82.095895 c 0,0 -0.75293,12.47465 12.47465,12.474652 l 16.12258,2e-6 16.12258,3e-6 c 13.22758,0 12.47465,-12.474657 12.47465,-12.474657 l -28.59723,0.104765 z"
       id="path875"
       sodipodi:nodetypes="cscsccc" />
    <path
       style="fill:#ffffff;fill-opacity:1;stroke:none;stroke-width:0.264583px;stroke-linecap:butt;stroke-linejoin:miter;stroke-opacity:1"
       d="m 301.16534,79.963407 c 0,0 -0.31086,-4.557999 4.558,-4.557999 4.86887,0 4.55801,4.557999 4.55801,4.557999 v 4.298721 l -9.11599,-2.061467 z"
       id="path1592"
       sodipodi:nodetypes="cscccc" />
    <path
       style="fill:#ffffff;fill-opacity:1;stroke:none;stroke-width:0.264583px;stroke-linecap:butt;stroke-linejoin:miter;stroke-opacity:1"
       d="m 358.36834,79.963407 c 0,0 0.31086,-4.557999 -4.558,-4.557999 -4.86887,0 -4.55801,4.557999 -4.55801,4.557999 v 4.298721 l 9.11599,-2.061467 z"
       id="path1592-3"
       sodipodi:nodetypes="cscccc" />
    <path
       style="fill:#fbfbfb;fill-opacity:1;stroke:none;stroke-width:0.264583px;stroke-linecap:butt;stroke-linejoin:miter;stroke-opacity:1"
       d="m 341.70403,56.661759 c 0,0 7.5483,-0.01595 7.5483,7.548306 V 79.963407 H 329.76684 310.28135 V 64.210065 c 0,-7.564256 7.5483,-7.548306 7.5483,-7.548306 h 11.93719 z"
       id="path1928-5"
       sodipodi:nodetypes="cscccsccc" />
  </g>
</svg>
