<?xml version="1.0" encoding="UTF-8" standalone="no"?>
<!-- Created with Inkscape (http://www.inkscape.org/) -->

<svg
   width="512"
   height="512"
   viewBox="0 0 135.46667 135.46667"
   version="1.1"
   id="svg5"
   inkscape:version="1.1.2 (0a00cf5339, 2022-02-04)"
   sodipodi:docname="logo.svg"
   inkscape:export-filename="/home/gleam/Gits/CarlOS/assets/logo.png"
   inkscape:export-xdpi="96"
   inkscape:export-ydpi="96"
   xmlns:inkscape="http://www.inkscape.org/namespaces/inkscape"
   xmlns:sodipodi="http://sodipodi.sourceforge.net/DTD/sodipodi-0.dtd"
   xmlns="http://www.w3.org/2000/svg"
   xmlns:svg="http://www.w3.org/2000/svg">
  <sodipodi:namedview
     id="namedview7"
     pagecolor="#ffffff"
     bordercolor="#666666"
     borderopacity="1.0"
     inkscape:pageshadow="2"
     inkscape:pageopacity="0.0"
     inkscape:pagecheckerboard="0"
     inkscape:document-units="mm"
     showgrid="false"
     units="px"
     showguides="true"
     inkscape:zoom="0.54866745"
     inkscape:cx="260.63146"
     inkscape:cy="258.80886"
     inkscape:window-width="1280"
     inkscape:window-height="704"
     inkscape:window-x="549"
     inkscape:window-y="213"
     inkscape:window-maximized="0"
     inkscape:current-layer="g3553"
     inkscape:snap-page="true"
     inkscape:snap-object-midpoints="true"
     inkscape:snap-center="true"
     inkscape:snap-bbox="true"
     inkscape:snap-bbox-midpoints="true"
     inkscape:bbox-paths="true"
     inkscape:bbox-nodes="true"
     inkscape:snap-bbox-edge-midpoints="true"
     inkscape:snap-global="true"
     inkscape:object-paths="true"
     width="512px"
     inkscape:guide-bbox="true" />
  <defs
     id="defs2" />
  <g
     inkscape:label="Layer 1"
     inkscape:groupmode="layer"
     id="layer1">
    <g
       aria-label="CarlOS"
       id="text4412"
       style="font-weight:bold;font-size:71.465px;line-height:1.25;-inkscape-font-specification:'sans-serif Bold';stroke-width:0.372214">
      <rect
         style="fill:#000000;fill-opacity:1;fill-rule:evenodd;stroke:none;stroke-width:1.49475;stroke-linecap:round;stroke-linejoin:round;stroke-opacity:0.998321"
         id="rect6201"
         width="135.46666"
         height="135.46666"
         x="0"
         y="0" />
      <g
         id="g3553"
         transform="translate(3.1172051,0.75127702)">
        <g
           id="g860"
           transform="translate(-1.0003662e-8,5.2404357)">
          <path
             d="m 29.495129,94.419519 q -5.869767,0 -9.124308,-0.813634 -3.254524,-0.813627 -5.056146,-3.603213 -1.801621,-2.847717 -1.801621,-8.659382 V 52.284979 q 0,-5.811653 1.801621,-8.601256 1.801622,-2.847708 5.056146,-3.661339 3.254541,-0.81364 9.124308,-0.81364 H 51.288867 V 64.48947 h -7.264582 q -1.452902,0 -1.452902,1.45292 0,1.452911 1.452902,1.452911 h 7.264582 v 27.024218 z"
             style="font-family:CubeFarm_Latin;-inkscape-font-specification:'CubeFarm_Latin Bold';fill:#ffffff;fill-opacity:1;stroke-width:0.302691"
             id="path9634" />
          <text
             xml:space="preserve"
             style="font-size:63.9945px;line-height:1.25;font-family:Libr;-inkscape-font-specification:Libr;stroke-width:0.159987"
             x="55.861412"
             y="97.347443"
             id="text7960"><tspan
               sodipodi:role="line"
               id="tspan7958"
               style="font-style:normal;font-variant:normal;font-weight:normal;font-stretch:normal;font-size:63.9945px;font-family:CubeFarm_Latin;-inkscape-font-specification:CubeFarm_Latin;stroke-width:0.159987"
               x="55.861412"
               y="97.347443"><tspan
                 id="tspan33225"
                 style="fill:#a5a5a5;fill-opacity:1;stroke-width:0.159987">O</tspan></tspan></text>
          <g
             style="fill:#000000"
             id="g35321"
             transform="matrix(0.10043696,0,0,0.10043696,60.673164,44.096909)">
            <g
               id="g35312">
              <path
                 d="m 480.986,215.947 c -1.4,1.1 -2.9,2.2 -4.5,3.3 v 0 0 c -7.9,5.1 -18.5,9.2 -32.8,9.9 -41.3,2.1 -77.6,-68.9 -135.5,-66 -14.8,0.7 -35.3,4.3 -63,31.8 -27.7,-27.6 -48.1,-31.1 -63,-31.8 -57.9,-2.9 -94.2,68.1 -135.5,66 -14.3,-0.7 -25,-4.8 -32.8,-9.9 v 0 0 c -1.6,-1.1 -3.1,-2.2 -4.5,-3.3 -13.2,-8.4 -8.9,7.2 -8,10.3 12.1,37.3 43.3,97.1 119.7,100.9 60.8,3.1 102.7,-24.7 124.1,-55.4 21.4,30.6 63.3,58.4 124.1,55.4 76.4,-3.8 107.6,-63.6 119.7,-100.9 1,-3.1 5.3,-18.7 -8,-10.3 z"
                 id="path35310" />
            </g>
          </g>
          <path
             style="fill:#ffffff;fill-opacity:1;stroke:#000000;stroke-width:0.196517px;stroke-linecap:butt;stroke-linejoin:miter;stroke-opacity:1"
             d="m 72.765226,58.944383 8.19497,-3.702528 4.338703,-5.581914 5.6973,6.907957 8.624881,2.27742 6.20218,-5.573952 -0.37367,-8.501791 -5.974028,-4.282409 -29.217759,0.0948 -5.232519,5.409335 0.671789,9.239086 z"
             id="path35952" />
          <g
             style="fill:#000000"
             id="g35359"
             transform="matrix(0.08622726,0,0,0.08622726,63.224703,27.585714)">
            <g
               id="g35349">
              <g
                 id="g35347">
                <path
                   d="m 483.983,167.477 c -32.82,-35.047 -84,-35.047 -108.599,-35.047 -0.02,0 -0.042,0 -0.062,0 H 136.619 c -0.001,0 -0.002,0 -0.003,0 -24.596,0 -75.776,0 -108.596,35.047 -21.01,22.435 -30.28,54.841 -27.555,96.319 2.226,33.874 14.411,62.702 35.241,83.37 21.364,21.199 50.394,32.405 83.95,32.405 34.529,0 69.87,-17.448 99.513,-49.13 15.052,-16.088 27.626,-34.818 36.831,-54.048 9.205,19.231 21.779,37.96 36.831,54.048 29.643,31.682 64.984,49.13 99.513,49.13 33.555,0 62.586,-11.205 83.95,-32.405 20.83,-20.668 33.014,-49.498 35.241,-83.37 2.726,-41.479 -6.543,-73.884 -27.552,-96.319 z m -347.364,-1.655 c 12.154,0 43.181,0.904 68.747,9.271 8.192,2.681 14.924,5.807 20.185,9.36 H 58.757 c 23.378,-18.62 58.303,-18.631 77.862,-18.631 z m -16.962,180.357 c -21.066,0 -39.426,-5.797 -53.677,-16.822 h 103.571 c -16.356,10.978 -33.444,16.822 -49.894,16.822 z m 85.109,-50.214 H 41.292 c -2.78,-6.898 -4.828,-14.383 -6.128,-22.365 h 184.662 c -4.421,7.707 -9.475,15.243 -15.06,22.365 z m 29.801,-55.757 H 33.722 c 0.542,-8.14 1.791,-15.594 3.724,-22.365 h 201.789 c -0.689,7.11 -2.28,14.645 -4.668,22.365 z m 72.069,-65.116 c 25.566,-8.367 56.592,-9.271 68.749,-9.271 19.555,0 54.48,0.011 77.859,18.63 H 286.451 c 5.26,-3.552 11.993,-6.677 20.185,-9.359 z m 85.709,171.087 c -16.451,0 -33.539,-5.844 -49.894,-16.822 h 103.571 c -14.251,11.025 -32.611,16.822 -53.677,16.822 z M 470.71,295.965 H 307.235 c -5.585,-7.122 -10.64,-14.658 -15.059,-22.365 h 184.662 c -1.299,7.982 -3.347,15.467 -6.128,22.365 z M 277.435,240.208 c -2.389,-7.72 -3.979,-15.256 -4.668,-22.365 h 201.789 c 1.933,6.771 3.182,14.225 3.724,22.365 z"
                   id="path35345" />
              </g>
            </g>
          </g>
          <rect
             style="fill:#010101;fill-opacity:1;fill-rule:evenodd;stroke-width:1.48341;stroke-linejoin:round;paint-order:stroke markers fill"
             id="rect35456"
             width="11.211963"
             height="4.8497114"
             x="104.50723"
             y="46.327774" />
          <rect
             style="fill:#010101;fill-opacity:1;fill-rule:evenodd;stroke-width:1.51108;stroke-linejoin:round;paint-order:stroke markers fill"
             id="rect35456-3"
             width="11.633478"
             height="4.8497138"
             x="54.073456"
             y="46.327774" />
          <path
             style="fill:#ffffff;fill-opacity:1;stroke:none;stroke-width:0.158376px;stroke-linecap:butt;stroke-linejoin:miter;stroke-opacity:1"
             d="m 68.180996,29.817061 c 0,0 -0.450694,7.467152 7.467152,7.467153 l 9.650753,1e-6 9.65075,2e-6 c 7.917849,0 7.467149,-7.467156 7.467149,-7.467156 l -17.117899,0.06271 z"
             id="path875"
             sodipodi:nodetypes="cscsccc" />
          <path
             style="fill:#ffffff;fill-opacity:1;stroke:none;stroke-width:0.158376px;stroke-linecap:butt;stroke-linejoin:miter;stroke-opacity:1"
             d="m 68.17844,28.540583 c 0,0 -0.186077,-2.728355 2.728355,-2.728355 2.914438,0 2.728362,2.728355 2.728362,2.728355 v 2.573154 l -5.456706,-1.233965 z"
             id="path1592"
             sodipodi:nodetypes="cscccc" />
          <path
             style="fill:#ffffff;fill-opacity:1;stroke:none;stroke-width:0.158376px;stroke-linecap:butt;stroke-linejoin:miter;stroke-opacity:1"
             d="m 102.41936,28.540583 c 0,0 0.18607,-2.728355 -2.728354,-2.728355 -2.914441,0 -2.728361,2.728355 -2.728361,2.728355 v 2.573154 l 5.456695,-1.233965 z"
             id="path1592-3"
             sodipodi:nodetypes="cscccc" />
          <path
             style="fill:#fbfbfb;fill-opacity:1;stroke:none;stroke-width:0.158376px;stroke-linecap:butt;stroke-linejoin:miter;stroke-opacity:1"
             d="m 92.444336,14.59254 c 0,0 4.518309,-0.0096 4.518309,4.518311 v 9.429732 H 85.298901 73.635157 v -9.429732 c 0,-4.527858 4.518307,-4.518311 4.518307,-4.518311 h 7.145437 z"
             id="path1928-5"
             sodipodi:nodetypes="cscccsccc" />
        </g>
      </g>
    </g>
  </g>
</svg>
